<svg xmlns="http://www.w3.org/2000/svg" xmlns:xlink="http://www.w3.org/1999/xlink" width="70" zoomAndPan="magnify" viewBox="0 0 70 70" height="70" preserveAspectRatio="xMidYMid meet" version="1.0"><defs><clipPath id="77e1cc034e"><path d="M 5.644531 5.644531 L 61.894531 5.644531 L 61.894531 61.894531 L 5.644531 61.894531 Z M 5.644531 5.644531 " clip-rule="nonzero"/></clipPath></defs><g clip-path="url(#77e1cc034e)"><path fill="#000000" d="M 61.898438 33.769531 C 61.898438 34.691406 61.851562 35.609375 61.761719 36.527344 C 61.671875 37.445312 61.535156 38.355469 61.355469 39.257812 C 61.175781 40.160156 60.953125 41.054688 60.6875 41.933594 C 60.417969 42.816406 60.109375 43.683594 59.753906 44.535156 C 59.402344 45.386719 59.011719 46.214844 58.574219 47.027344 C 58.140625 47.839844 57.667969 48.628906 57.15625 49.398438 C 56.644531 50.164062 56.097656 50.902344 55.511719 51.613281 C 54.929688 52.324219 54.308594 53.007812 53.660156 53.660156 C 53.007812 54.308594 52.324219 54.929688 51.613281 55.511719 C 50.902344 56.097656 50.164062 56.644531 49.398438 57.15625 C 48.628906 57.667969 47.839844 58.140625 47.027344 58.574219 C 46.21875 59.011719 45.386719 59.402344 44.535156 59.753906 C 43.683594 60.109375 42.816406 60.417969 41.933594 60.683594 C 41.054688 60.953125 40.160156 61.175781 39.257812 61.355469 C 38.355469 61.535156 37.445312 61.671875 36.527344 61.761719 C 35.609375 61.851562 34.691406 61.898438 33.769531 61.898438 C 32.847656 61.898438 31.929688 61.851562 31.015625 61.761719 C 30.097656 61.671875 29.1875 61.535156 28.285156 61.355469 C 27.378906 61.175781 26.488281 60.953125 25.605469 60.683594 C 24.726562 60.417969 23.859375 60.109375 23.007812 59.753906 C 22.15625 59.402344 21.324219 59.007812 20.511719 58.574219 C 19.699219 58.140625 18.910156 57.667969 18.144531 57.15625 C 17.378906 56.644531 16.640625 56.097656 15.925781 55.511719 C 15.214844 54.929688 14.535156 54.308594 13.882812 53.660156 C 13.230469 53.007812 12.613281 52.324219 12.027344 51.613281 C 11.445312 50.902344 10.898438 50.164062 10.382812 49.398438 C 9.871094 48.628906 9.398438 47.839844 8.964844 47.027344 C 8.53125 46.214844 8.136719 45.386719 7.785156 44.535156 C 7.433594 43.683594 7.125 42.816406 6.855469 41.933594 C 6.589844 41.054688 6.363281 40.160156 6.183594 39.257812 C 6.003906 38.355469 5.871094 37.445312 5.78125 36.527344 C 5.691406 35.609375 5.644531 34.691406 5.644531 33.769531 C 5.644531 32.847656 5.691406 31.929688 5.78125 31.015625 C 5.871094 30.097656 6.003906 29.1875 6.183594 28.285156 C 6.363281 27.378906 6.589844 26.488281 6.855469 25.605469 C 7.125 24.722656 7.433594 23.859375 7.785156 23.007812 C 8.136719 22.15625 8.53125 21.324219 8.964844 20.511719 C 9.398438 19.699219 9.871094 18.910156 10.382812 18.144531 C 10.898438 17.378906 11.445312 16.640625 12.027344 15.925781 C 12.613281 15.214844 13.230469 14.535156 13.882812 13.882812 C 14.535156 13.230469 15.214844 12.613281 15.925781 12.027344 C 16.640625 11.445312 17.378906 10.894531 18.144531 10.382812 C 18.910156 9.871094 19.699219 9.398438 20.511719 8.964844 C 21.324219 8.53125 22.15625 8.136719 23.007812 7.785156 C 23.859375 7.433594 24.726562 7.121094 25.605469 6.855469 C 26.488281 6.589844 27.378906 6.363281 28.285156 6.183594 C 29.1875 6.003906 30.097656 5.871094 31.015625 5.78125 C 31.929688 5.691406 32.847656 5.644531 33.769531 5.644531 C 34.691406 5.644531 35.609375 5.691406 36.527344 5.78125 C 37.445312 5.871094 38.355469 6.003906 39.257812 6.183594 C 40.160156 6.363281 41.054688 6.589844 41.933594 6.855469 C 42.816406 7.121094 43.683594 7.433594 44.535156 7.785156 C 45.386719 8.136719 46.21875 8.53125 47.027344 8.964844 C 47.839844 9.398438 48.628906 9.871094 49.398438 10.382812 C 50.164062 10.894531 50.902344 11.445312 51.613281 12.027344 C 52.324219 12.613281 53.007812 13.230469 53.660156 13.882812 C 54.308594 14.535156 54.929688 15.214844 55.511719 15.925781 C 56.097656 16.640625 56.644531 17.378906 57.15625 18.144531 C 57.667969 18.910156 58.140625 19.699219 58.574219 20.511719 C 59.011719 21.324219 59.402344 22.15625 59.753906 23.007812 C 60.109375 23.859375 60.417969 24.722656 60.6875 25.605469 C 60.953125 26.488281 61.175781 27.378906 61.355469 28.285156 C 61.535156 29.1875 61.671875 30.097656 61.761719 31.015625 C 61.851562 31.929688 61.898438 32.847656 61.898438 33.769531 Z M 61.898438 33.769531 " fill-opacity="1" fill-rule="nonzero"/></g><path fill="#f1f0f0" d="M 59.117188 33.769531 C 59.117188 34.601562 59.074219 35.429688 58.992188 36.253906 C 58.914062 37.082031 58.789062 37.902344 58.628906 38.714844 C 58.46875 39.53125 58.265625 40.332031 58.023438 41.128906 C 57.785156 41.921875 57.503906 42.703125 57.1875 43.46875 C 56.867188 44.238281 56.515625 44.984375 56.125 45.71875 C 55.730469 46.449219 55.304688 47.160156 54.84375 47.851562 C 54.382812 48.542969 53.890625 49.207031 53.363281 49.847656 C 52.835938 50.492188 52.28125 51.105469 51.691406 51.691406 C 51.105469 52.28125 50.492188 52.835938 49.847656 53.363281 C 49.207031 53.890625 48.542969 54.382812 47.851562 54.84375 C 47.160156 55.304688 46.449219 55.730469 45.71875 56.125 C 44.984375 56.515625 44.238281 56.867188 43.46875 57.1875 C 42.703125 57.503906 41.921875 57.785156 41.128906 58.023438 C 40.332031 58.265625 39.53125 58.46875 38.714844 58.628906 C 37.902344 58.789062 37.082031 58.914062 36.253906 58.992188 C 35.429688 59.074219 34.601562 59.117188 33.769531 59.117188 C 32.941406 59.117188 32.113281 59.074219 31.285156 58.992188 C 30.460938 58.914062 29.640625 58.789062 28.824219 58.628906 C 28.011719 58.46875 27.207031 58.265625 26.414062 58.023438 C 25.617188 57.785156 24.839844 57.503906 24.070312 57.1875 C 23.304688 56.867188 22.554688 56.515625 21.824219 56.125 C 21.089844 55.730469 20.378906 55.304688 19.691406 54.84375 C 19 54.382812 18.332031 53.890625 17.691406 53.363281 C 17.050781 52.835938 16.4375 52.28125 15.847656 51.691406 C 15.261719 51.105469 14.707031 50.492188 14.179688 49.847656 C 13.652344 49.207031 13.160156 48.542969 12.695312 47.851562 C 12.234375 47.160156 11.808594 46.449219 11.417969 45.71875 C 11.027344 44.984375 10.671875 44.238281 10.355469 43.46875 C 10.039062 42.703125 9.757812 41.921875 9.515625 41.128906 C 9.277344 40.332031 9.074219 39.53125 8.914062 38.714844 C 8.75 37.902344 8.628906 37.082031 8.546875 36.253906 C 8.464844 35.429688 8.425781 34.601562 8.425781 33.769531 C 8.425781 32.941406 8.464844 32.113281 8.546875 31.285156 C 8.628906 30.460938 8.75 29.640625 8.914062 28.824219 C 9.074219 28.011719 9.277344 27.207031 9.515625 26.414062 C 9.757812 25.617188 10.039062 24.839844 10.355469 24.070312 C 10.671875 23.304688 11.027344 22.554688 11.417969 21.824219 C 11.808594 21.089844 12.234375 20.378906 12.695312 19.691406 C 13.160156 19 13.652344 18.332031 14.179688 17.691406 C 14.707031 17.050781 15.261719 16.4375 15.847656 15.847656 C 16.4375 15.261719 17.050781 14.707031 17.691406 14.179688 C 18.332031 13.652344 19 13.160156 19.691406 12.695312 C 20.378906 12.234375 21.089844 11.808594 21.824219 11.417969 C 22.554688 11.027344 23.304688 10.671875 24.070312 10.355469 C 24.839844 10.039062 25.617188 9.757812 26.414062 9.515625 C 27.207031 9.277344 28.011719 9.074219 28.824219 8.914062 C 29.640625 8.75 30.460938 8.628906 31.285156 8.546875 C 32.113281 8.464844 32.941406 8.425781 33.769531 8.425781 C 34.601562 8.425781 35.429688 8.464844 36.253906 8.546875 C 37.082031 8.628906 37.902344 8.75 38.714844 8.914062 C 39.53125 9.074219 40.332031 9.277344 41.128906 9.515625 C 41.921875 9.757812 42.703125 10.039062 43.46875 10.355469 C 44.238281 10.671875 44.984375 11.027344 45.71875 11.417969 C 46.449219 11.808594 47.160156 12.234375 47.851562 12.695312 C 48.542969 13.160156 49.207031 13.652344 49.847656 14.179688 C 50.492188 14.707031 51.105469 15.261719 51.691406 15.847656 C 52.28125 16.4375 52.835938 17.050781 53.363281 17.691406 C 53.890625 18.332031 54.382812 19 54.84375 19.691406 C 55.304688 20.378906 55.730469 21.089844 56.125 21.824219 C 56.515625 22.554688 56.867188 23.304688 57.1875 24.070312 C 57.503906 24.839844 57.785156 25.617188 58.023438 26.414062 C 58.265625 27.207031 58.46875 28.011719 58.628906 28.824219 C 58.789062 29.640625 58.914062 30.460938 58.992188 31.285156 C 59.074219 32.113281 59.117188 32.941406 59.117188 33.769531 Z M 59.117188 33.769531 " fill-opacity="1" fill-rule="nonzero"/><path fill="#000000" d="M 20.53125 27.152344 L 10.492188 32.902344 C 10.480469 33.191406 10.472656 33.480469 10.472656 33.769531 C 10.472656 41.714844 14.449219 48.726562 20.519531 52.929688 Z M 46.117188 25.605469 L 46.148438 14.035156 C 42.5625 11.777344 38.320312 10.472656 33.769531 10.472656 C 30.199219 10.472656 26.8125 11.28125 23.789062 12.714844 Z M 21.425781 41.933594 L 21.390625 53.507812 C 24.976562 55.761719 29.222656 57.066406 33.769531 57.066406 C 37.34375 57.066406 40.726562 56.261719 43.753906 54.824219 Z M 32.863281 18.996094 L 10.546875 31.90625 C 11.191406 23.777344 16.007812 16.828125 22.851562 13.1875 Z M 34.679688 48.542969 L 56.992188 35.636719 C 56.347656 43.761719 51.535156 50.714844 44.691406 54.351562 Z M 47.007812 40.386719 L 57.050781 34.636719 C 57.058594 34.351562 57.066406 34.0625 57.066406 33.769531 C 57.066406 25.828125 53.09375 18.816406 47.023438 14.609375 Z M 47.007812 40.386719 " fill-opacity="1" fill-rule="evenodd"/><path fill="#000000" d="M 30.59375 22.851562 C 36.625 21.097656 42.9375 24.5625 44.691406 30.59375 C 46.445312 36.625 42.976562 42.9375 36.945312 44.691406 C 30.914062 46.445312 24.601562 42.976562 22.847656 36.945312 C 21.097656 30.914062 24.5625 24.601562 30.59375 22.851562 Z M 30.59375 22.851562 " fill-opacity="1" fill-rule="evenodd"/><path fill="#f1f0f0" d="M 26.058594 31.398438 C 26.035156 31.929688 25.59375 32.351562 25.058594 32.347656 C 24.511719 32.34375 24.023438 31.875 24.074219 31.3125 C 24.292969 28.804688 26.265625 26.519531 28.453125 25.414062 C 28.953125 25.160156 29.5625 25.414062 29.78125 25.921875 C 30 26.417969 29.761719 26.980469 29.285156 27.222656 C 27.855469 27.945312 26.375 29.8125 26.058594 31.398438 Z M 26.058594 31.398438 " fill-opacity="1" fill-rule="evenodd"/><path fill="#f1f0f0" d="M 32.679688 24.863281 C 32.679688 24.996094 32.652344 25.125 32.601562 25.25 C 32.550781 25.371094 32.476562 25.480469 32.382812 25.578125 C 32.289062 25.671875 32.179688 25.742188 32.058594 25.792969 C 31.933594 25.847656 31.804688 25.871094 31.671875 25.871094 C 31.539062 25.871094 31.410156 25.847656 31.285156 25.792969 C 31.164062 25.742188 31.054688 25.671875 30.957031 25.578125 C 30.863281 25.480469 30.792969 25.371094 30.742188 25.25 C 30.6875 25.125 30.664062 24.996094 30.664062 24.863281 C 30.664062 24.730469 30.6875 24.601562 30.742188 24.476562 C 30.792969 24.355469 30.863281 24.246094 30.957031 24.152344 C 31.054688 24.058594 31.164062 23.984375 31.285156 23.933594 C 31.410156 23.882812 31.539062 23.855469 31.671875 23.855469 C 31.804688 23.855469 31.933594 23.882812 32.058594 23.933594 C 32.179688 23.984375 32.289062 24.058594 32.382812 24.152344 C 32.476562 24.246094 32.550781 24.355469 32.601562 24.476562 C 32.652344 24.601562 32.679688 24.730469 32.679688 24.863281 Z M 32.679688 24.863281 " fill-opacity="1" fill-rule="nonzero"/></svg>